# xmcd
#
# Track frame offsets: 
#        150
#        19576
#        34930
#        50929
#        67326
#        99868
#
# Disc length: 1698 seconds
#
# Revision: 7
# Processed by: cddbd v1.5.2PL0 Copyright (c) Steve Scherf et al.
# Submitted via: ExactAudioCopy v1.3
#
DISCID=5006a006
DTITLE=Madonna - Rebel Heart {Super Deluxe Edition} [CD2]
DYEAR=2015
DGENRE=Pop
TTITLE0=Beautiful Scars
TTITLE1=Borrowed Time
TTITLE2=Addicted
TTITLE3=Graffiti Heart
TTITLE4=Living For Love (PAULO and Jackinsky Full Vocal Mix)
TTITLE5=Living For Love (Funk Generation and H3dRush Dub)
EXTD=
EXTT0=
EXTT1=
EXTT2=
EXTT3=
EXTT4=
EXTT5=
PLAYORDER=
